<?xml version="1.0" encoding="utf-8"?>
<!-- Generator: Adobe Illustrator 27.7.0, SVG Export Plug-In . SVG Version: 6.00 Build 0)  -->
<svg version="1.1" id="Layer_2_00000018219999082592891250000012478462150267527849_"
	 xmlns="http://www.w3.org/2000/svg" xmlns:xlink="http://www.w3.org/1999/xlink" x="0px" y="0px" viewBox="0 0 502 4586.3"
	 style="enable-background:new 0 0 502 4586.3;" xml:space="preserve">
<style type="text/css">
	.st0{fill:url(#SVGID_1_);}
	.st1{opacity:0.53;}
	.st2{stroke:#939393;stroke-width:1.6078;stroke-miterlimit:10;}
	.st3{stroke:#939393;stroke-width:1.7254;stroke-miterlimit:10;}
	.st4{stroke:#939393;stroke-width:2.0601;stroke-miterlimit:10;}
	.st5{stroke:#939393;stroke-width:2.0006;stroke-miterlimit:10;}
	.st6{stroke:#939393;stroke-width:0.9254;stroke-miterlimit:10;}
	.st7{stroke:#939393;stroke-width:0.9931;stroke-miterlimit:10;}
	.st8{stroke:#939393;stroke-width:1.1858;stroke-miterlimit:10;}
	.st9{stroke:#939393;stroke-width:1.1515;stroke-miterlimit:10;}
	.st10{stroke:#939393;stroke-width:1.9292;stroke-miterlimit:10;}
	.st11{opacity:0.52;}
	.st12{stroke:#939393;stroke-width:1.8221;stroke-miterlimit:10;}
	.st13{opacity:0.56;}
	.st14{stroke:#939393;stroke-width:1.5542;stroke-miterlimit:10;}
	.st15{stroke:#939393;stroke-width:1.3177;stroke-miterlimit:10;}
	.st16{stroke:#939393;stroke-width:1.4141;stroke-miterlimit:10;}
	.st17{stroke:#939393;stroke-width:1.6885;stroke-miterlimit:10;}
	.st18{stroke:#939393;stroke-width:1.6397;stroke-miterlimit:10;}
</style>
<g id="Layer_2-2">
	
		<linearGradient id="SVGID_1_" gradientUnits="userSpaceOnUse" x1="-3884.9905" y1="-110.3495" x2="267.2488" y2="-110.3495" gradientTransform="matrix(6.123234e-17 -1 -1 -6.123234e-17 141.5924 701.2966)">
		<stop  offset="0.3281" style="stop-color:#67B0C1"/>
		<stop  offset="0.408" style="stop-color:#61A7B7"/>
		<stop  offset="0.5402" style="stop-color:#548F9E"/>
		<stop  offset="0.7073" style="stop-color:#3E6975"/>
		<stop  offset="0.8221" style="stop-color:#2D4C56"/>
		<stop  offset="0.867" style="stop-color:#26424B"/>
		<stop  offset="0.9434" style="stop-color:#132931"/>
		<stop  offset="1" style="stop-color:#031319"/>
	</linearGradient>
	<rect x="1.9" y="3.1" class="st0" width="500" height="4583.2"/>
	<g>
		<g class="st1">
			<ellipse class="st2" cx="102.1" cy="4235.2" rx="75.5" ry="78"/>
			<ellipse class="st2" cx="102.1" cy="4235.2" rx="65.8" ry="68"/>
			<ellipse class="st2" cx="102.1" cy="4235.2" rx="55.7" ry="57.5"/>
			<ellipse class="st2" cx="102.1" cy="4235.2" rx="45.3" ry="46.8"/>
			<ellipse class="st3" cx="102.1" cy="4235.2" rx="35" ry="36.2"/>
			<ellipse class="st4" cx="102.1" cy="4235.2" rx="25.8" ry="26.6"/>
			<ellipse class="st5" cx="102.1" cy="4235.2" rx="17.1" ry="17.6"/>
			<ellipse class="st5" cx="102.1" cy="4235.2" rx="9.5" ry="9.8"/>
		</g>
		<g class="st1">
			<ellipse class="st6" cx="394.5" cy="3867.5" rx="43.5" ry="44.9"/>
			<ellipse class="st6" cx="394.5" cy="3867.5" rx="37.9" ry="39.1"/>
			<ellipse class="st6" cx="394.5" cy="3867.5" rx="32" ry="33.1"/>
			<ellipse class="st6" cx="394.5" cy="3867.5" rx="26.1" ry="26.9"/>
			<ellipse class="st7" cx="394.5" cy="3867.5" rx="20.2" ry="20.8"/>
			<ellipse class="st8" cx="394.5" cy="3867.5" rx="14.8" ry="15.3"/>
			<ellipse class="st9" cx="394.5" cy="3867.5" rx="9.8" ry="10.1"/>
			<ellipse class="st9" cx="394.5" cy="3867.5" rx="5.5" ry="5.7"/>
		</g>
		<g class="st1">
			<path class="st10" d="M67,4470.2c-25.2,0-48.1,12.6-65.2,33.2v23.4c15.2-24.8,38.7-40.7,65.2-40.7c44,0,80.1,44.2,82.9,100.2
				h12.3C159.4,4521.6,117.9,4470.2,67,4470.2z"/>
			<path class="st10" d="M67,4486.1c-26.4,0-49.9,15.9-65.2,40.7v32.4c10.5-33.2,35.7-56.6,65.2-56.6c37,0,67.3,36.9,70.1,83.7h12.8
				C147.1,4530.3,111.1,4486.1,67,4486.1L67,4486.1z"/>
			<path class="st10" d="M67,4502.6c-29.5,0-54.7,23.4-65.2,56.6v27.1h8.2c2.8-37.5,27.2-66.7,56.9-66.7s54.2,29.3,56.9,66.7h13.2
				C134.3,4539.5,104,4502.6,67,4502.6z"/>
			<path class="st10" d="M67,4519.5c-29.7,0-54.2,29.3-56.9,66.7h13.1c2.7-28.2,21.3-50,43.9-50s41.1,21.8,43.9,50H124
				C121.2,4548.8,96.8,4519.5,67,4519.5z"/>
			<path class="st10" d="M67,4536.3c-22.6,0-41.1,21.8-43.9,50H35c2.6-19.8,16-34.9,32-34.9s29.4,15.1,32,34.9h11.8
				C108.2,4558.1,89.6,4536.3,67,4536.3L67,4536.3z"/>
			<path class="st10" d="M67,4551.4c-16.1,0-29.4,15.1-32,34.9h11.2c2.4-11.9,10.8-20.7,20.8-20.7s18.4,8.8,20.8,20.7h11.2
				C96.5,4566.5,83.1,4551.4,67,4551.4L67,4551.4z"/>
			<path class="st10" d="M67,4565.6c-10,0-18.4,8.8-20.8,20.7h10.2c2-5,6-8.4,10.7-8.4s8.7,3.4,10.7,8.4h10.2
				C85.4,4574.4,77,4565.6,67,4565.6L67,4565.6z"/>
			<path class="st10" d="M67,4577.9c-4.6,0-8.7,3.4-10.7,8.4h21.3C75.7,4581.3,71.7,4577.9,67,4577.9z"/>
		</g>
		<g class="st11">
			<path class="st12" d="M360.4,4526.7c0,22.2,6,42.7,16.3,59.5h17.7c-12.6-15.6-20.2-36.6-20.2-59.5c0-48.4,34.1-87.7,76.1-87.7
				c20,0,38.1,8.9,51.7,23.4V4442c-14.6-11.9-32.5-18.8-51.7-18.8C400.6,4423.1,360.4,4469.5,360.4,4526.7z"/>
			<g>
				<path class="st12" d="M484.3,4586.3H502V4566C497.3,4574,491.3,4581,484.3,4586.3z"/>
				<g>
					<path class="st12" d="M450.3,4499.9c-12.9,0-23.3,12-23.3,26.9s10.4,26.9,23.3,26.9s23.3-12,23.3-26.9
						S463.1,4499.9,450.3,4499.9z M450.3,4541.7c-7.2,0-13-6.7-13-15s5.8-15,13-15s13,6.7,13,15S457.4,4541.7,450.3,4541.7z"/>
					<g>
						<path class="st12" d="M347.1,4526.7c0,21.7,5,42,13.9,59.5h15.8c-10.3-16.8-16.3-37.4-16.3-59.5c0-57.2,40.2-103.6,89.9-103.6
							c19.2,0,37.1,7,51.7,18.8v-18.2c-15.2-10.2-32.9-16-51.7-16C393.3,4407.8,347.1,4461.1,347.1,4526.7L347.1,4526.7z"/>
						<path class="st12" d="M374.2,4526.7c0,23,7.7,43.9,20.2,59.5h21.8c-16.8-12.8-27.8-34.7-27.8-59.5c0-39.4,27.7-71.3,61.9-71.3
							c21.6,0,40.6,12.8,51.7,32.1v-25.1c-13.6-14.5-31.7-23.4-51.7-23.4C408.2,4439.1,374.2,4478.3,374.2,4526.7z"/>
						<path class="st12" d="M450.3,4455.4c-34.2,0-61.9,31.9-61.9,71.3c0,24.9,11.1,46.8,27.8,59.5h68.1c7-5.3,13-12.3,17.6-20.3
							v-78.4C490.9,4468.2,471.9,4455.4,450.3,4455.4L450.3,4455.4z M450.3,4581.9c-26.4,0-47.8-24.7-47.8-55.1s21.4-55.1,47.8-55.1
							s47.8,24.7,47.8,55.1S476.7,4581.9,450.3,4581.9z"/>
						<path class="st12" d="M450.3,4471.6c-26.4,0-47.8,24.7-47.8,55.1s21.4,55.1,47.8,55.1s47.8-24.7,47.8-55.1
							S476.7,4471.6,450.3,4471.6z M450.3,4567.3c-19.4,0-35.2-18.2-35.2-40.6s15.8-40.6,35.2-40.6s35.2,18.2,35.2,40.6
							S469.7,4567.3,450.3,4567.3L450.3,4567.3z"/>
						<path class="st12" d="M450.3,4486.2c-19.4,0-35.2,18.2-35.2,40.6s15.8,40.6,35.2,40.6s35.2-18.2,35.2-40.6
							S469.7,4486.2,450.3,4486.2L450.3,4486.2z M450.3,4553.6c-12.9,0-23.3-12-23.3-26.9s10.4-26.9,23.3-26.9s23.3,12,23.3,26.9
							S463.1,4553.6,450.3,4553.6z"/>
						<ellipse class="st12" cx="450.3" cy="4526.7" rx="13" ry="15"/>
					</g>
				</g>
			</g>
		</g>
		<g class="st13">
			<path class="st14" d="M119.1,2594.9C119.1,2517,71,2450,1.9,2420v27.5c54.5,28.1,91.6,83.5,91.6,147.4s-37.1,119.3-91.6,147.4
				v27.5C71,2739.8,119.1,2672.8,119.1,2594.9z"/>
			<path class="st14" d="M93.5,2594.9c0-63.8-37.1-119.3-91.6-147.4v29.9c39.2,25.3,65.1,68.5,65.1,117.5s-25.8,92.2-65.1,117.5
				v29.9C56.4,2714.2,93.5,2658.7,93.5,2594.9z"/>
			<path class="st14" d="M66.9,2594.9c0-49-25.8-92.2-65.1-117.5v33.6c23.2,21,37.8,50.8,37.8,84s-14.5,63-37.8,84v33.6
				C41.1,2687.1,66.9,2643.9,66.9,2594.9z"/>
			<path class="st14" d="M39.6,2594.9c0-33.1-14.5-63-37.8-84v42.2c6.9,12.4,10.8,26.6,10.8,41.7s-3.9,29.3-10.8,41.7v42.2
				C25.1,2657.9,39.6,2628,39.6,2594.9L39.6,2594.9z"/>
			<path class="st14" d="M1.9,2553.2v83.4c6.9-12.4,10.8-26.6,10.8-41.7S8.7,2565.6,1.9,2553.2z"/>
		</g>
		<g class="st1">
			<ellipse class="st15" cx="307.2" cy="4303.1" rx="59.4" ry="66.7"/>
			<ellipse class="st15" cx="307.2" cy="4303.1" rx="51.7" ry="58.1"/>
			<ellipse class="st15" cx="307.2" cy="4303.1" rx="43.8" ry="49.1"/>
			<ellipse class="st15" cx="307.2" cy="4303.1" rx="35.6" ry="40"/>
			<ellipse class="st16" cx="307.2" cy="4303.1" rx="27.5" ry="30.9"/>
			<ellipse class="st17" cx="307.2" cy="4303.1" rx="20.3" ry="22.7"/>
			<ellipse class="st18" cx="307.2" cy="4303.1" rx="13.4" ry="15.1"/>
			<ellipse class="st18" cx="307.2" cy="4303.1" rx="7.5" ry="8.4"/>
		</g>
	</g>
</g>
</svg>
