<?xml version="1.0" encoding="utf-8"?>
<!-- Generator: Adobe Illustrator 27.7.0, SVG Export Plug-In . SVG Version: 6.00 Build 0)  -->
<svg version="1.1" id="Layer_2_00000042701559945694127470000003457483532410060198_"
	 xmlns="http://www.w3.org/2000/svg" xmlns:xlink="http://www.w3.org/1999/xlink" x="0px" y="0px" viewBox="0 0 795.8 4286"
	 style="enable-background:new 0 0 795.8 4286;" xml:space="preserve">
<style type="text/css">
	.st0{fill:url(#SVGID_1_);}
	.st1{opacity:0.53;}
	.st2{stroke:#939393;stroke-width:2.5085;stroke-miterlimit:10;}
	.st3{stroke:#939393;stroke-width:2.6919;stroke-miterlimit:10;}
	.st4{stroke:#939393;stroke-width:3.2143;stroke-miterlimit:10;}
	.st5{stroke:#939393;stroke-width:3.1214;stroke-miterlimit:10;}
	.st6{stroke:#939393;stroke-width:1.4439;stroke-miterlimit:10;}
	.st7{stroke:#939393;stroke-width:1.5495;stroke-miterlimit:10;}
	.st8{stroke:#939393;stroke-width:1.8501;stroke-miterlimit:10;}
	.st9{stroke:#939393;stroke-width:1.7966;stroke-miterlimit:10;}
	.st10{opacity:0.52;}
	.st11{opacity:0.56;}
	.st12{stroke:#939393;stroke-width:1.9729;stroke-miterlimit:10;}
	.st13{stroke:#939393;stroke-width:2.1172;stroke-miterlimit:10;}
	.st14{stroke:#939393;stroke-width:2.528;stroke-miterlimit:10;}
	.st15{stroke:#939393;stroke-width:2.4549;stroke-miterlimit:10;}
</style>
<g id="Layer_1-2">
	<g>
		
			<linearGradient id="SVGID_1_" gradientUnits="userSpaceOnUse" x1="-2583.2637" y1="743.1589" x2="1298.4493" y2="743.1589" gradientTransform="matrix(6.123234e-17 -1 -1 -6.123234e-17 1141.6562 1701.3606)">
			<stop  offset="0.3281" style="stop-color:#67B0C1"/>
			<stop  offset="0.408" style="stop-color:#61A7B7"/>
			<stop  offset="0.5402" style="stop-color:#548F9E"/>
			<stop  offset="0.7073" style="stop-color:#3E6975"/>
			<stop  offset="0.8221" style="stop-color:#2D4C56"/>
			<stop  offset="0.867" style="stop-color:#26424B"/>
			<stop  offset="0.9434" style="stop-color:#132931"/>
			<stop  offset="1" style="stop-color:#031319"/>
		</linearGradient>
		<rect x="2.5" class="st0" width="792" height="4284.6"/>
		<g>
			<g class="st1">
				<circle class="st2" cx="160.2" cy="3829.6" r="119.8"/>
				<circle class="st2" cx="160.2" cy="3829.6" r="104.3"/>
				<circle class="st2" cx="160.2" cy="3829.6" r="88.3"/>
				<circle class="st2" cx="160.2" cy="3829.6" r="71.8"/>
				<circle class="st3" cx="160.2" cy="3829.6" r="55.5"/>
				<circle class="st4" cx="160.2" cy="3829.6" r="40.8"/>
				<circle class="st5" cx="160.2" cy="3829.6" r="27.1"/>
				<circle class="st5" cx="160.2" cy="3829.6" r="15.1"/>
			</g>
			<g class="st1">
				<circle class="st6" cx="624.1" cy="3415.9" r="68.9"/>
				<circle class="st6" cx="624.1" cy="3415.9" r="60.1"/>
				<circle class="st6" cx="624.1" cy="3415.9" r="50.8"/>
				<circle class="st6" cx="624.1" cy="3415.9" r="41.3"/>
				<circle class="st7" cx="624.1" cy="3415.9" r="32"/>
				<circle class="st8" cx="624.1" cy="3415.9" r="23.5"/>
				<circle class="st9" cx="624.1" cy="3415.9" r="15.6"/>
				<circle class="st9" cx="624.1" cy="3415.9" r="8.7"/>
			</g>
			<g class="st1">
				<path class="st3" d="M104.7,4142.1c-40,0-76.3,15.5-103.3,40.8v28.7c24.1-30.5,61.5-50,103.3-50c69.8,0,127,54.3,131.5,123h19.5
					C251.2,4205.2,185.3,4142.1,104.7,4142.1z"/>
				<path class="st3" d="M104.7,4161.6c-41.9,0-79.2,19.5-103.3,50v39.7c16.6-40.8,56.6-69.5,103.3-69.5
					c58.6,0,106.7,45.3,111.2,102.8h20.3C231.7,4215.9,174.5,4161.6,104.7,4161.6z"/>
				<path class="st3" d="M104.7,4181.9c-46.7,0-86.7,28.7-103.3,69.5v33.3h13c4.4-46,43.2-81.9,90.3-81.9s85.9,36,90.3,81.9h20.9
					C211.4,4227.1,163.3,4181.9,104.7,4181.9z"/>
				<path class="st3" d="M104.7,4202.7c-47.1,0-85.9,36-90.3,81.9h20.7c4.3-34.6,33.8-61.4,69.6-61.4s65.3,26.8,69.6,61.4H195
					C190.6,4238.6,151.8,4202.7,104.7,4202.7z"/>
				<path class="st3" d="M104.7,4223.3c-35.8,0-65.3,26.8-69.6,61.4h18.8c4.2-24.3,25.3-42.8,50.8-42.8s46.7,18.5,50.8,42.8h18.8
					C170,4250,140.5,4223.3,104.7,4223.3z"/>
				<path class="st3" d="M104.7,4241.8c-25.5,0-46.7,18.5-50.8,42.8h17.8c3.9-14.6,17.2-25.4,33-25.4s29.2,10.8,33,25.4h17.8
					C151.3,4260.3,130.2,4241.8,104.7,4241.8z"/>
				<path class="st3" d="M104.7,4259.2c-15.8,0-29.2,10.8-33,25.4h16.1c3.2-6.1,9.6-10.3,16.9-10.3s13.7,4.2,16.9,10.3h16.1
					C133.8,4270,120.5,4259.2,104.7,4259.2z"/>
				<path class="st3" d="M104.7,4274.3c-7.4,0-13.7,4.2-16.9,10.3h33.8C118.4,4278.5,112,4274.3,104.7,4274.3z"/>
			</g>
			<g class="st10">
				<path class="st3" d="M569.9,4202.7c0,30.5,9.6,58.8,25.9,81.9h28.1c-19.9-21.5-32.1-50.3-32.1-81.9c0-66.6,54-120.7,120.7-120.7
					c31.7,0,60.5,12.2,82,32.1V4086c-23.2-16.3-51.5-25.9-82-25.9C633.8,4060.1,569.9,4123.9,569.9,4202.7z"/>
				<g>
					<path class="st3" d="M766.5,4284.6h28v-28C787.2,4267.8,777.6,4277.3,766.5,4284.6z"/>
					<g>
						<path class="st3" d="M712.5,4165.7c-20.4,0-37,16.6-37,37s16.6,37,37,37s37-16.6,37-37S732.9,4165.7,712.5,4165.7z
							 M712.5,4223.3c-11.4,0-20.6-9.2-20.6-20.6s9.2-20.6,20.6-20.6s20.6,9.2,20.6,20.6S723.9,4223.3,712.5,4223.3z"/>
						<g>
							<path class="st3" d="M548.8,4202.7c0,29.9,8,57.8,22,81.9h25c-16.3-23.2-25.9-51.4-25.9-81.9c0-78.7,63.8-142.6,142.6-142.6
								c30.5,0,58.8,9.6,82,25.9v-25c-24.1-14-52.1-22-82-22C622.1,4039,548.8,4112.3,548.8,4202.7z"/>
							<path class="st3" d="M591.8,4202.7c0,31.6,12.2,60.4,32.1,81.9h34.5c-26.6-17.6-44.1-47.7-44.1-81.9
								c0-54.2,43.9-98.2,98.2-98.2c34.3,0,64.4,17.6,82,44.2v-34.6c-21.5-19.9-50.3-32.1-82-32.1
								C645.9,4082,591.8,4136,591.8,4202.7z"/>
							<path class="st3" d="M712.5,4104.5c-54.2,0-98.2,43.9-98.2,98.2c0,34.2,17.5,64.4,44.1,81.9h108.1c11.1-7.3,20.6-16.9,28-28
								v-107.9C776.9,4122.1,746.8,4104.5,712.5,4104.5z M712.5,4278.6c-41.9,0-75.9-34-75.9-75.9s34-75.9,75.9-75.9
								s75.9,34,75.9,75.9S754.4,4278.6,712.5,4278.6z"/>
							<path class="st3" d="M712.5,4126.8c-41.9,0-75.9,34-75.9,75.9s34,75.9,75.9,75.9s75.9-34,75.9-75.9
								S754.4,4126.8,712.5,4126.8z M712.5,4258.5c-30.8,0-55.8-25-55.8-55.8s25-55.8,55.8-55.8s55.8,25,55.8,55.8
								S743.3,4258.5,712.5,4258.5z"/>
							<path class="st3" d="M712.5,4146.9c-30.8,0-55.8,25-55.8,55.8s25,55.8,55.8,55.8s55.8-25,55.8-55.8
								S743.3,4146.9,712.5,4146.9z M712.5,4239.7c-20.4,0-37-16.6-37-37s16.6-37,37-37s37,16.6,37,37S732.9,4239.7,712.5,4239.7z"
								/>
							
								<ellipse transform="matrix(0.9871 -0.1602 0.1602 0.9871 -663.9931 168.3978)" class="st3" cx="712.5" cy="4202.7" rx="20.6" ry="20.6"/>
						</g>
					</g>
				</g>
			</g>
			<g class="st11">
				<path class="st2" d="M187.2,2213.4c0-127.9-76.3-238-185.9-287.3v45.2c86.5,46.1,145.3,137.2,145.3,242.1
					S87.8,2409.4,1.3,2455.5v45.2C110.9,2451.4,187.2,2341.3,187.2,2213.4z"/>
				<path class="st2" d="M146.6,2213.4c0-104.8-58.8-195.9-145.3-242.1v49c62.2,41.6,103.2,112.5,103.2,193s-41,151.4-103.2,193v49
					C87.8,2409.4,146.6,2318.3,146.6,2213.4z"/>
				<path class="st2" d="M104.5,2213.4c0-80.5-41-151.4-103.2-193v55.1c36.8,34.5,59.9,83.5,59.9,137.9s-23,103.5-59.9,137.9v55.1
					C63.6,2364.8,104.5,2293.9,104.5,2213.4z"/>
				<path class="st2" d="M61.2,2213.4c0-54.4-23-103.5-59.9-137.9v69.4c10.9,20.4,17.1,43.7,17.1,68.5s-6.2,48.1-17.1,68.5v69.4
					C38.2,2316.9,61.2,2267.8,61.2,2213.4z"/>
				<path class="st2" d="M1.3,2144.9v137c10.9-20.4,17.1-43.7,17.1-68.5S12.2,2165.4,1.3,2144.9z"/>
			</g>
			<g class="st1">
				<circle class="st12" cx="485.7" cy="3949.4" r="94.2"/>
				
					<ellipse transform="matrix(3.327791e-02 -0.9994 0.9994 3.327791e-02 -3477.689 4303.3403)" class="st12" cx="485.7" cy="3949.4" rx="82.1" ry="82.1"/>
				<circle class="st12" cx="485.7" cy="3949.4" r="69.5"/>
				
					<ellipse transform="matrix(0.9985 -5.530042e-02 5.530042e-02 0.9985 -217.6589 32.9007)" class="st12" cx="485.7" cy="3949.4" rx="56.5" ry="56.5"/>
				<circle class="st13" cx="485.7" cy="3949.4" r="43.7"/>
				<circle class="st14" cx="485.7" cy="3949.4" r="32.1"/>
				<circle class="st15" cx="485.7" cy="3949.4" r="21.3"/>
				<circle class="st15" cx="485.7" cy="3949.4" r="11.9"/>
			</g>
		</g>
	</g>
</g>
</svg>
