<?xml version="1.0" encoding="UTF-8"?>
<svg id="Layer_2" data-name="Layer 2" xmlns="http://www.w3.org/2000/svg" viewBox="0 0 110.72501 110.72501">
  <defs>
    <style>
      .cls-1 {
        fill: #fff;
      }

      .cls-2 {
        fill: #404355;
      }

      .cls-3 {
        fill: none;
        stroke: #fff;
        stroke-miterlimit: 10;
        stroke-width: 3.99233px;
      }
    </style>
  </defs>
  <g id="Layer_1-2" data-name="Layer 1">
    <g>
      <circle class="cls-3" cx="55.36251" cy="55.36251" r="53.36634"/>
      <g>
        <path class="cls-1" d="m79.1925,47.47677c-.04004-.84033-.04004-1.68018-.10999-2.52002-.07996-.84033-.17004-1.68018-.32996-2.5-.17004-.84033-.42004-1.65039-.63-2.47021-.03003-.0498-.06995-.1001-.08997-.1499-.56006-1.60986-1.46008-2.99023-2.64014-4.20996-.32983-.3501-.68994-.66016-1.04993-.99023-.88-.66992-1.78992-1.31006-2.83997-1.71973-.39001-.14014-.77002-.30029-1.17004-.43018-.62-.18994-1.23999-.37012-1.85999-.5498-.81006-.08008-1.62-.18018-2.42993-.25-1-.08008-2-.15039-3-.16992-2.38013-.05029-4.76001-.07031-7.15015-.1001-.0199,0-.04993-.01025-.07983-.01025-2.03003.03027-4.05005.06006-6.07007.08984-1.27002.03027-2.54004.02051-3.81006.11035-1.34998.08984-2.68994.27979-4.04004.41992-1.58984.35986-3.10986.91992-4.47998,1.81006-.53992.3501-1.03003.75-1.53992,1.12988-.49011.55029-.97009,1.08984-1.46008,1.62988-.35986.53027-.70996,1.07031-1.06995,1.6001-.27991.62988-.54993,1.25-.82996,1.87012-.08008.29004-.17004.58008-.25.87012-.16003.58008-.31006,1.1499-.45996,1.71973-.09009,1.18994-.18005,2.37988-.27002,3.57031l-.09009,3.56982v12.39014c.04004,1.08008.07007,2.1499.11011,3.22998.01001.15967.04993.31006.05994.46973.06995.7002.13,1.3999.19006,2.1001.16992.68994.27991,1.41016.52991,2.06982.43005,1.11035.96008,2.18018,1.45007,3.27002.53992.66016,1.06995,1.32031,1.60986,1.97021.23999.19971.48999.37988.71008.58984,1.13,1.04004,2.46008,1.74023,3.89001,2.27002,2.23999.83984,4.57996.97998,6.92993,1.05029,2.5.07959,5.01001.06982,7.51001.09961.04004,0,.09009.01025.13013.02002,2.53992-.04004,5.08984-.06982,7.62988-.10986,1.18005-.02002,2.36011-.0498,3.54004-.08984.13,0,.25-.04004.38-.07031.26001-.00977.51001.02002.76001-.02979,1.03992-.18994,2.06995-.41016,3.10999-.62012,1.09998-.5,2.19995-1.00977,3.30005-1.50977,1.35986-.95996,2.55994-2.09033,3.5-3.47021.44995-.8999.88989-1.7998,1.33997-2.69971.53992-1.55029.81995-3.15039.94995-4.77002.08997-1.16016.07996-2.33008.12-3.5.03003-1.58008.06006-3.15039.09009-4.72998v-5.17041c-.03003-1.68994-.06006-3.38965-.09009-5.07959Zm-4.3999,13.63965c-.03003,1.41016-.03003,2.82031-.09009,4.22998-.02002.62012-.15991,1.22998-.23999,1.84033-.14001,1.12988-.47998,2.18994-1.05005,3.16992-.46997.63965-.87988,1.31006-1.41992,1.87988-.64001.7002-1.43994,1.22998-2.3501,1.56006-.94995.44971-1.95996.68994-3,.77979-.90991.09033-1.80994.12012-2.71997.16992-.72998.04004-1.46997.1001-2.20996.1001-4.02002.01025-8.05005.01025-12.07007,0-1.15991,0-2.30994-.06006-3.45996-.1001-2.43994-.01953-4.79004-.38965-6.81995-1.87988-.52002-.38965-.93005-.92969-1.40002-1.38965-.91992-1.13037-1.44995-2.42041-1.66992-3.8501-.09009-.51025-.22998-1.02002-.27002-1.54004-.07007-.93994-.08008-1.87988-.11011-2.81982-.03003-.32031-.06995-.63037-.07996-.9502-.01001-.52002.01001-1.04004.01001-1.5498v-11.06006c.03003-1.04004.05994-2.08008.08997-3.13037.06006-.88965.12012-1.77979.18005-2.66992.17004-.68994.33997-1.37012.51001-2.06006.16003-.40967.30994-.82959.46997-1.23975.28992-.4502.57996-.8999.87-1.33984,1.39001-1.78027,3.27002-2.69043,5.43994-3.02051,1.14014-.16992,2.31006-.25977,3.47009-.26953,5.31995-.05029,10.65002-.08008,15.97998-.09033,1.01001,0,2.02002.12012,3.02991.18018,1.44006.1001,2.83008.37012,4.11011,1.0498,1,.41016,1.82007,1.08008,2.5,1.91016.17993.21973.35999.4502.54004.68018.8999,1.34961,1.37988,2.84961,1.52002,4.45996.04993.3999.13989.7998.15991,1.19971.04004,1.2002.05005,2.41016.08008,3.62012v12.12988Z"/>
        <path class="cls-2" d="m74.71252,45.36642c-.02002-.3999-.10999-.7998-.15991-1.19971-.14014-1.61035-.62012-3.11035-1.52002-4.45996-.18005-.22998-.36011-.46045-.54004-.68018-.67993-.83008-1.5-1.5-2.5-1.91016-1.28003-.67969-2.67004-.94971-4.11011-1.0498-1.00989-.06006-2.0199-.18018-3.02991-.18018-5.32996.01025-10.66003.04004-15.97998.09033-1.16003.00977-2.32996.09961-3.47009.26953-2.16992.33008-4.04993,1.24023-5.43994,3.02051-.29004.43994-.58008.88965-.87,1.33984-.16003.41016-.30994.83008-.46997,1.23975-.17004.68994-.33997,1.37012-.51001,2.06006-.05994.89014-.12,1.78027-.18005,2.66992-.03003,1.05029-.05994,2.09033-.08997,3.13037v11.06006c0,.50977-.02002,1.02979-.01001,1.5498.01001.31982.04993.62988.07996.9502.03003.93994.04004,1.87988.11011,2.81982.04004.52002.17993,1.02979.27002,1.54004.21997,1.42969.75,2.71973,1.66992,3.8501.46997.45996.88,1,1.40002,1.38965,2.02991,1.49023,4.38,1.86035,6.81995,1.87988,1.15002.04004,2.30005.1001,3.45996.1001,4.02002.01025,8.05005.01025,12.07007,0,.73999,0,1.47998-.06006,2.20996-.1001.91003-.0498,1.81006-.07959,2.71997-.16992,1.04004-.08984,2.05005-.33008,3-.77979.91016-.33008,1.71008-.85986,2.3501-1.56006.54004-.56982.94995-1.24023,1.41992-1.87988.57007-.97998.91003-2.04004,1.05005-3.16992.08008-.61035.21997-1.22021.23999-1.84033.06006-1.40967.06006-2.81982.09009-4.22998v-12.12988c-.03003-1.20996-.04004-2.41992-.08008-3.62012Zm-7.30005,12.54004c-.1499.51025-.26001,1.04004-.46997,1.52002-.37.87988-.81006,1.72021-1.21997,2.58008-.55005.68994-1.09009,1.37012-1.63,2.0498-1.14001,1.13037-2.48999,1.96045-3.92004,2.66016-1.17993.31006-2.33997.70996-3.54004.87012-.94995.14014-1.93994.00977-2.90991-.05029-1.54004-.10986-2.97998-.58984-4.28003-1.37988-1.02002-.60986-1.93994-1.38965-2.8999-2.1001-1.06006-1.1499-1.89014-2.43994-2.58008-3.82959-.28003-.98047-.56006-1.95996-.83008-2.94043-.02991-.88965-.05994-1.76953-.06982-2.65967-.01001-.27002.03992-.55029.06982-.82031.27002-1.02979.53003-2.06006.81006-3.07959.04004-.17041.11011-.33008.17004-.49023.53992-1.08984,1.17004-2.12012,1.97998-3.02979.79993-.99023,1.82996-1.68994,2.84998-2.40039.90002-.38965,1.79004-.81982,2.70996-1.16992,1.6001-.60986,3.29004-.64014,4.96008-.50977,1.55994.10986,3.04993.58984,4.43005,1.33984.17993.1001.36987.16992.55994.25.58997.4502,1.21008.8501,1.75,1.3501.67004.64014,1.27991,1.3501,1.91003,2.04004.1499.16016.29004.3501.42993.52979.25.49023.53003.97021.73999,1.47021.32007.81006.6001,1.62988.89001,2.44971.08997.72998.24011,1.46045.24011,2.2002.00989,1.0498-.09009,2.1001-.15015,3.1499Zm2.92004-13.37988c-.65002.64014-1.38,1.02002-2.33997,1-1.02002-.03027-1.77002-.47998-2.36011-1.27002-.60986-.97021-.57983-1.98975-.17993-3.02002.39001-.52979.81006-1.00977,1.44995-1.27002,1.04004-.43994,1.97998-.27979,2.89014.31006.11987.08008.23999.16016.35986.24023.96008,1.16992,1.18005,2.58984.18005,4.00977Z"/>
        <path class="cls-1" d="m67.32251,52.55636c-.28992-.81982-.56995-1.63965-.89001-2.44971-.20996-.5-.48999-.97998-.73999-1.47021-.13989-.17969-.28003-.36963-.42993-.52979-.63013-.68994-1.23999-1.3999-1.91003-2.04004-.53992-.5-1.16003-.8999-1.75-1.3501-.19006-.08008-.38-.1499-.55994-.25-1.38013-.75-2.87012-1.22998-4.43005-1.33984-1.67004-.13037-3.35999-.1001-4.96008.50977-.91992.3501-1.80994.78027-2.70996,1.16992-1.02002.71045-2.05005,1.41016-2.84998,2.40039-.80994.90967-1.44006,1.93994-1.97998,3.02979-.05994.16016-.13.31982-.17004.49023-.28003,1.01953-.54004,2.0498-.81006,3.07959-.02991.27002-.07983.55029-.06982.82031.00989.89014.03992,1.77002.06982,2.65967.27002.98047.55005,1.95996.83008,2.94043.68994,1.38965,1.52002,2.67969,2.58008,3.82959.95996.71045,1.87988,1.49023,2.8999,2.1001,1.30005.79004,2.73999,1.27002,4.28003,1.37988.96997.06006,1.95996.19043,2.90991.05029,1.20007-.16016,2.36011-.56006,3.54004-.87012,1.43005-.69971,2.78003-1.52979,3.92004-2.66016.53992-.67969,1.07996-1.35986,1.63-2.0498.40991-.85986.84998-1.7002,1.21997-2.58008.20996-.47998.32007-1.00977.46997-1.52002.06006-1.0498.16003-2.1001.15015-3.1499,0-.73975-.15015-1.47021-.24011-2.2002Zm-4.19006,3.84033c-.11987,1.29004-.58984,2.43994-1.33984,3.47998-.72009,1.1001-1.69006,1.90967-2.86011,2.5-.96997.52979-2,.81982-3.09998.87988-1.95996.12012-3.71997-.43994-5.27991-1.60986-.40015-.30029-.7301-.7002-1.09009-1.06006-.83997-.81006-1.33008-1.83008-1.67993-2.91992-.03003-.07031-.05005-.14014-.08008-.20996-.08997-.7002-.20996-1.41016-.27002-2.12012-.03003-.3501.06006-.72021.1001-1.09033.09985-.91992.36987-1.78955.85986-2.58984.28003-.42969.52002-.91016.8501-1.2998,1-1.20996,2.25-2.06006,3.75-2.53027,1.75-.54004,3.47998-.5,5.17993.18018,2.43005.98975,4.04004,2.72998,4.76001,5.26025.31006,1.02979.37012,2.06982.19995,3.12988Z"/>
        <path class="cls-2" d="m63.13244,56.39669c-.11987,1.29004-.58984,2.43994-1.33984,3.47998-.72009,1.1001-1.69006,1.90967-2.86011,2.5-.96997.52979-2,.81982-3.09998.87988-1.95996.12012-3.71997-.43994-5.27991-1.60986-.40015-.30029-.7301-.7002-1.09009-1.06006-.83997-.81006-1.33008-1.83008-1.67993-2.91992-.03003-.07031-.05005-.14014-.08008-.20996-.08997-.7002-.20996-1.41016-.27002-2.12012-.03003-.3501.06006-.72021.1001-1.09033.09985-.91992.36987-1.78955.85986-2.58984.28003-.42969.52002-.91016.8501-1.2998,1-1.20996,2.25-2.06006,3.75-2.53027,1.75-.54004,3.47998-.5,5.17993.18018,2.43005.98975,4.04004,2.72998,4.76001,5.26025.31006,1.02979.37012,2.06982.19995,3.12988Z"/>
        <path class="cls-1" d="m70.33252,44.52658c-.65002.64014-1.38,1.02002-2.33997,1-1.02002-.03027-1.77002-.47998-2.36011-1.27002-.60986-.97021-.57983-1.98975-.17993-3.02002.39001-.52979.81006-1.00977,1.44995-1.27002,1.04004-.43994,1.97998-.27979,2.89014.31006.11987.08008.23999.16016.35986.24023.96008,1.16992,1.18005,2.58984.18005,4.00977Z"/>
      </g>
    </g>
  </g>
</svg>