<?xml version="1.0" encoding="UTF-8"?>
<svg id="Layer_2" data-name="Layer 2" xmlns="http://www.w3.org/2000/svg" viewBox="0 0 112.5997 112.5997">
  <defs>
    <style>
      .cls-1 {
        fill: #fff;
      }

      .cls-2 {
        fill: #404355;
      }

      .cls-3 {
        fill: none;
        stroke: #fff;
        stroke-miterlimit: 10;
        stroke-width: 4.05993px;
      }
    </style>
  </defs>
  <g id="Layer_1-2" data-name="Layer 1">
    <g>
      <circle class="cls-3" cx="56.29985" cy="56.29985" r="54.26989"/>
      <g>
        <path class="cls-1" d="m35.47278,38.45658c0-1.64697,1.37882-2.9838,3.0785-2.9838h35.49714c1.70033,0,3.0785,1.33684,3.0785,2.9838v35.68702c0,1.64745-1.37817,2.98332-3.0785,2.98332h-35.49714c-1.69952,0-3.0785-1.3357-3.0785-2.98283v-35.688.00049Z"/>
        <path class="cls-2" d="m48.13108,70.33176v-18.75283h-6.23315v18.75283h6.2338-.00065Zm-3.11527-21.31277c2.17318,0,3.52612-1.44,3.52612-3.23959-.04068-1.84059-1.35295-3.2404-3.48479-3.2404-2.13331,0-3.52661,1.39981-3.52661,3.24024,0,1.79959,1.35246,3.23959,3.44444,3.23959h.04035l.00049.00016Zm6.56541,21.31277h6.23266v-10.4713c0-.55973.04068-1.12092.20534-1.5207.45039-1.12027,1.47596-2.27991,3.19826-2.27991,2.25486,0,3.15742,1.71954,3.15742,4.24075v10.03116h6.2325v-10.7523c0-5.75982-3.0746-8.44017-7.17541-8.44017-3.36211,0-4.83872,1.87916-5.65911,3.15904h.04149v-2.71875h-6.23283c.08136,1.75924-.00049,18.75283-.00049,18.75283l.00016-.00065Z"/>
      </g>
    </g>
  </g>
</svg>